<svg xmlns="http://www.w3.org/2000/svg" fill-rule="evenodd" fill="none" stroke-linecap="square" stroke-miterlimit="10" overflow="hidden" preserveAspectRatio="none" width="1344" height="1482" viewBox="0 0 256032 282321">
  <rect fill="none" width="100%" height="100%"/>
  <path fill="#fff" d="M6858 60198h224409v168306.75H6858z"/>
  <path fill="#4BB4D2" d="M6858 60198h224409v168306.75H6858z"/>
  <path d="M46129.57567 76572.1709h145865.84577v34828.76087H46129.57567z"/>
  <path fill="none" pointer-events="visiblePainted" d="M46129.57567 76572.1709h145865.84577v34828.76087H46129.57567z"/>
  <g transform="translate(10200 -10000)">
    <path stroke="#5da2ff" stroke-opacity=".6" stroke-width="1524.012418398" stroke-linejoin="round" stroke-miterlimit="8" d="M135904.6493 159757.0523c49.14624-1063.00291 89.33734-2130.46811 142.94586-3193.44045 1339.87667-142.91552 2648.51736-491.31029 3885.70041-1027.27403 4639.21486-1991.77037 7674.0864-6524.26439 7749.12-11572.30565 582.41952 985.86032 1027.24183 2046.7849 1322.02753 3153.24928 1831.21675 6837.96944-2344.83766 13841.22697-9325.71156 15632.22488-1334.55861 345.24672-2714.65695 481.01035-4091.17935 401.97281 232.25262-1089.8072 267.98144-2228.73016 317.09711-3394.42685"/>
    <path stroke="#5da2ff" stroke-opacity=".6" stroke-width="1852.7392183979998" stroke-linecap="round" stroke-linejoin="round" stroke-miterlimit="8" d="M135904.68236 159757.02197c49.14633-1063.00122 89.33752-2130.46472 142.94614-3193.43538 1339.87942-142.94586 2648.5228-491.30951 3885.70838-1027.2724 4639.1938-1991.76722 7674.10213-6524.25406 7749.13587-11572.28733 582.39016 985.85875 1027.24394 2046.78165 1322.03025 3153.24428 1831.2205 6837.95862-2344.84247 13841.20506-9325.73067 15632.20014-1334.56135 345.24617-2714.66251 481.00958-4091.18774 401.97217 232.2531-1089.80548 267.982-2228.72663 317.09777-3394.42148z"/>
    <path stroke="#5da2ff" stroke-opacity=".6" stroke-width="1524.012418398" stroke-linejoin="round" stroke-miterlimit="8" d="M135600.93991 159685.59902c93.79986-2130.4687 165.25768-4260.90683 308.20389-6386.88267 285.8313-31.2666 576.15545-62.5332 866.44904-111.67952 4957.66923-835.21244 8740.65498-4560.12481 9986.76573-9223.00457 281.39956 1071.92779 437.7021 2197.43363 437.7021 3363.1612 0 6757.589-5127.35865 12282.45493-11612.50764 12715.69445l13.38688-357.28889"/>
    <path stroke="#5da2ff" stroke-opacity=".6" stroke-width="1852.7392183979998" stroke-linecap="round" stroke-linejoin="round" stroke-miterlimit="8" d="M135600.97007 159685.56433c93.79962-2130.46473 165.25726-4260.8989 308.20311-6386.87078 285.83058-31.26654 576.154-62.53308 866.44686-111.6793 4957.65677-835.21089 8740.633-4560.11633 9986.74062-9222.9874 281.39886 1071.9258 437.701 2197.42954 437.701 3363.15494 0 6757.57641-5127.34576 12282.43205-11612.47844 12715.67076l13.38685-357.28822zm133.99072-3180.04854c1281.83644-142.91529 2532.4369-491.3095 3702.59403-1027.2724 4586.95114-2090.24306 7324.80584-6681.62592 7378.41435-11514.21653"/>
    <path stroke="#5da2ff" stroke-opacity=".6" stroke-width="1524.012418398" stroke-linejoin="round" stroke-miterlimit="8" d="M103112.77782 159757.0523c-49.11567-1063.00291-89.30677-2130.46811-142.91528-3193.44045-1339.90724-142.91552-2648.54793-491.31029-3885.73099-1027.27403-4639.0926-1991.77037-7674.14753-6524.26439-7749.08942-11572.30565-582.4501 985.86032-1027.2724 2046.7849-1322.02754 3153.24928-1831.21675 6837.96944 2344.8071 13841.22697 9325.71156 15632.22488 1334.4058 346.59152 2714.80977 481.92726 4091.17935 401.97281-232.25262-1089.8072-267.98144-2228.73016-317.12768-3394.42685"/>
    <path stroke="#5da2ff" stroke-opacity=".6" stroke-width="1852.7392183979998" stroke-linecap="round" stroke-linejoin="round" stroke-miterlimit="8" d="M103112.80214 159757.02197c-49.11577-1063.00122-89.30696-2130.46472-142.91558-3193.43538-1339.90999-142.94586-2648.55336-491.30951-3885.73895-1027.2724-4639.1021-1991.76722-7674.16325-6524.25406-7749.1053-11572.28733-582.48185 985.85875-1027.2745 2046.78165-1322.06081 3153.24428-1831.18994 6837.95862 2344.84246 13841.20506 9325.76123 15632.20014 1334.40853 346.59097 2714.81533 481.89592 4091.18774 401.97217-232.2531-1089.80548-267.982-2228.72663-317.12833-3394.42148z"/>
    <path stroke="#5da2ff" stroke-opacity=".6" stroke-width="1524.012418398" stroke-linejoin="round" stroke-miterlimit="8" d="M102523.25747 159685.59902c-98.26215-2130.4687-165.25768-4260.90683-308.17333-6386.88267-285.86186-31.2666-576.15545-62.5332-866.4796-111.67952-4957.63867-835.21244-8740.65498-4560.12481-9986.76573-9223.00457-289.68232 1097.60124-436.81575 2227.93613-437.7021 3363.1612 0 6757.589 5127.35865 12282.45493 11612.50764 12715.69445l-13.38688-357.28889"/>
    <path stroke="#5da2ff" stroke-opacity=".6" stroke-width="1852.7392183979998" stroke-linecap="round" stroke-linejoin="round" stroke-miterlimit="8" d="M102523.23461 159685.56433c-98.2619-2130.46473-165.25726-4260.8989-308.17255-6386.87078-285.86114-31.26654-576.154-62.53308-866.47742-111.6793-4957.6262-835.21089-8740.633-4560.11633-9986.74062-9222.9874-289.68159 1097.5992-436.81465 2227.93199-437.701 3363.15494 0 6757.57641 5127.34576 12282.43205 11612.47844 12715.67076l-13.38685-357.28822zm-133.99072-3180.04854c-1280.82784-144.22952-2530.57252-490.94275-3702.59403-1027.2724-4586.95113-2090.24306-7324.80584-6681.62592-7378.41435-11514.21653"/>
    <path stroke="#5da2ff" stroke-opacity=".6" stroke-width="1524.012418398" stroke-linejoin="round" stroke-miterlimit="8" d="M112362.60033 131458.26579h13399.07174v-9379.32008h-13399.07174v9379.32008z"/>
    <path stroke="#5da2ff" stroke-opacity=".6" stroke-width="1852.7392183979998" stroke-linecap="round" stroke-linejoin="round" stroke-miterlimit="8" d="M112362.5948 131458.29599h13399.04179v-9379.34716h-13399.0418v9379.34716z"/>
    <path stroke="#5da2ff" stroke-opacity=".6" stroke-width="1524.012418398" stroke-linejoin="round" stroke-miterlimit="8" d="M102536.64554 161382.75372h33050.93307v-20991.82907h-33050.93307v20991.82907zm5247.94963-24676.5434l-3238.11934 3238.08877-4689.64476-11165.85287 11165.85288 4689.64476-3238.08878 3238.11933"/>
    <path stroke="#5da2ff" stroke-opacity=".6" stroke-width="1852.7392183979998" stroke-linecap="round" stroke-linejoin="round" stroke-miterlimit="8" d="M107784.60233 136706.21747l-3238.11934 3238.08878-4689.64476-11165.85288 11165.85287 4689.64476-3238.08877 3238.11934z"/>
    <path stroke="#5da2ff" stroke-opacity=".6" stroke-width="1524.012418398" stroke-linejoin="round" stroke-miterlimit="8" d="M130339.6038 136706.21031l3238.11934 3238.08878 4689.64476-11165.85287-11165.85287 4689.64476 3238.08877 3238.11933"/>
    <path stroke="#5da2ff" stroke-opacity=".6" stroke-width="1852.7392183979998" stroke-linecap="round" stroke-linejoin="round" stroke-miterlimit="8" d="M130339.59902 136706.21747l3238.11934 3238.08878 4689.64476-11165.85288-11165.85288 4689.64476 3238.08878 3238.11934z"/>
    <path stroke="#5da2ff" stroke-opacity=".6" stroke-width="1524.012418398" stroke-linejoin="round" stroke-miterlimit="8" d="M134247.6791 143133.30264c0 4211.7605-15408.90264-3340.84975-15408.90264-3340.84975s-15408.87208 7548.14796-15408.87208 3340.84975c0-8414.627 6900.4917-15248.13607 15408.87208-15248.13607 8508.38037 0 15408.90264 6829.04678 15408.90264 15248.13607"/>
    <path stroke="#5da2ff" stroke-opacity=".6" stroke-width="1852.7392183979998" stroke-linecap="round" stroke-linejoin="round" stroke-miterlimit="8" d="M134247.70364 143133.30464c0 4211.75267-15408.917-3340.84352-15408.917-3340.84352s-15408.88642 7548.1339-15408.88642 3340.84352c0-8414.61132 6900.49812-15248.10766 15408.88643-15248.10766 8508.3883 0 15408.91699 6829.03406 15408.91699 15248.10766z"/>
    <path stroke="#5da2ff" stroke-opacity=".6" stroke-width="1524.012418398" stroke-linejoin="round" stroke-miterlimit="8" d="M122188.53767 146500.89834l-2903.14253 2822.72976-2903.11197-2822.72976 2903.11197-2983.52474 2903.14253 2983.52474"/>
    <path stroke="#5da2ff" stroke-opacity=".6" stroke-width="1852.7392183979998" stroke-linecap="round" stroke-linejoin="round" stroke-miterlimit="8" d="M122188.57257 146500.94502l-2903.15497 2822.74186-2903.1244-2822.74186 2903.1244-2983.53752 2903.15497 2983.53752z"/>
    <path stroke="#5da2ff" stroke-opacity=".6" stroke-width="1524.012418398" stroke-linejoin="round" stroke-miterlimit="8" d="M127070.2754 130564.98573c-3190.32088-17.63518-6151.72035 1654.22307-7784.85606 4394.88962-1633.10516-2740.66655-4594.53519-4412.5248-7784.8255-4394.88962-4948.73681 0-8963.96941 3899.11783-8963.96941 8709.39703 0 4810.24864 4015.2326 8709.36647 8963.9694 8709.36647 3331.8915 0 6239.46846-1768.68367 7784.8255-4394.88962 1633.13572 2740.66655 4594.5352 4412.5248 7784.85607 4394.88962 4948.70625 0 8963.93885-3899.11783 8963.93885-8709.36647 0-4810.2792-4015.2326-8709.39703-8963.93885-8709.39703"/>
    <path stroke="#5da2ff" stroke-opacity=".6" stroke-width="1852.7392183979998" stroke-linejoin="round" stroke-miterlimit="8" d="M127070.24745 130564.98095c-3190.3179-17.63518-6151.71461 1654.22307-7784.8488 4394.88962-1633.10364-2740.66655-4594.53091-4412.5248-7784.81825-4394.88962-4948.7322 0-8963.96107 3899.11783-8963.96107 8709.39703 0 4810.24863 4015.22886 8709.36646 8963.96107 8709.36646 3331.8884 0 6239.46264-1768.68366 7784.81824-4394.88962 1633.1342 2740.66656 4594.5309 4412.5248 7784.84881 4394.88962 4948.70164 0 8963.9305-3899.11783 8963.9305-8709.36646 0-4810.2792-4015.22886-8709.39703-8963.9305-8709.39703z"/>
    <path stroke="#5da2ff" stroke-opacity=".6" stroke-width="1524.012418398" stroke-linejoin="round" stroke-miterlimit="8" d="M111915.94101 138827.73722c0 616.68837-499.89787 1116.59197-1116.57917 1116.59197-616.65074 0-1116.57918-499.9036-1116.57918-1116.59197 0-616.6578 499.92844-1116.59196 1116.57918-1116.59196 616.6813 0 1116.57917 499.93416 1116.57917 1116.59196m16078.85626 0c0 616.68837-499.92844 1116.59197-1116.60974 1116.59197-616.65074 0-1116.57917-499.9036-1116.57917-1116.59197 0-616.6578 499.92843-1116.59196 1116.57917-1116.59196 616.6813 0 1116.60974 499.93416 1116.60974 1116.59196"/>
    <path stroke="#5da2ff" stroke-opacity=".6" stroke-width="1852.7392183979998" stroke-linecap="round" stroke-linejoin="round" stroke-miterlimit="8" d="M102536.63462 139051.05106v13399.04179"/>
    <path stroke="#5da2ff" stroke-opacity=".6" stroke-width="1852.7392183979998" stroke-miterlimit="8" d="M136034.22073 139051.05106v13399.04179"/>
    <path stroke="#5da2ff" stroke-opacity=".6" stroke-width="1852.7392183979998" stroke-linecap="round" stroke-linejoin="round" stroke-miterlimit="8" d="M86457.78977 166742.35724c4082.22612 0 7391.80465 3206.82224 7391.80465 7168.47314v3541.79905m-4921.93024-7168.47315c2733.42425 0 4944.24166 2143.85158 4944.24166 4792.39951v2367.14907m54900.34056 8.92457H89115.2635m5203.29867-2501.1398l5163.07698-1831.18618m52184.796-6377.94621c-4082.25668 0-7391.80465 3206.82224-7391.80465 7168.47314v3541.79905m4921.89968-7168.47315c-2733.3937 0-4948.70395 2143.85158-4948.70395 4792.39951v2367.14907m-442.16348-2496.67751l-5163.10754-1822.26161"/>
    <path stroke="#5da2ff" stroke-opacity=".6" stroke-width="1524.012418398" stroke-linejoin="round" stroke-miterlimit="8" d="M130674.61046 128778.47853h-3573.09288l1786.54644-4019.74941 1786.54644 4019.7494"/>
    <path stroke="#5da2ff" stroke-opacity=".6" stroke-width="1852.7392183979998" stroke-linecap="round" stroke-linejoin="round" stroke-miterlimit="8" d="M130674.57583 128778.47955h-3573.06559l1786.5328-4019.7217 1786.53279 4019.7217z"/>
    <path stroke="#5da2ff" stroke-opacity=".6" stroke-width="1524.012418398" stroke-linejoin="round" stroke-miterlimit="8" d="M137065.94172 177461.61164H101509.376c-905.29316 4.92074-1643.12849-724.87724-1648.07979-1630.20207v-22193.2796c4.92074-904.2551 739.3635-1634.69493 1643.6175-1634.69493h35561.028c906.21007-2.44509 1643.15905 728.6977 1648.07978 1634.69492v22188.81733c-2.6896 905.32482-738.29377 1637.35395-1643.6175 1634.66435"/>
    <path stroke="#5da2ff" stroke-opacity=".6" stroke-width="1852.7392183979998" stroke-miterlimit="8" d="M137065.94887 177461.58757h-35556.5657c-905.29317 4.92074-1643.1285-724.87637-1648.0798-1630.2001v-22193.25274c4.92074-904.254 739.36351-1634.69294 1643.61751-1634.69294h35561.028c906.21006-2.44508 1643.15904 728.69682 1648.07978 1634.69294v22188.79046c-2.6896 905.32373-738.29378 1637.35197-1643.6175 1634.66238z"/>
    <path stroke="#5da2ff" stroke-opacity=".6" stroke-width="1524.012418398" stroke-linejoin="round" stroke-miterlimit="8" d="M128888.0498 120962.35282l-10049.2737 4243.03382-10049.2737-4243.03382 10049.2737-4243.03382 10049.2737 4243.03382"/>
    <path stroke="#5da2ff" stroke-opacity=".6" stroke-width="1852.7392183979998" stroke-linecap="round" stroke-linejoin="round" stroke-miterlimit="8" d="M128888.07596 120962.33823l-10049.28867 4243.0192-10049.28868-4243.0192 10049.28868-4243.0192 10049.28867 4243.0192zm0 0v4082.25478-4082.25478z"/>
    <path stroke="#5da2ff" stroke-opacity=".6" stroke-width="1524.012418398" stroke-linejoin="round" stroke-miterlimit="8" d="M121741.91878 164955.82626c0 1726.6893-1399.75072 3126.44002-3126.44003 3126.44002-1726.6893 0-3126.44003-1399.75072-3126.44003-3126.44002 0-1726.68931 1399.75072-3126.44003 3126.44003-3126.44003 1726.6893 0 3126.44003 1399.75072 3126.44003 3126.44003z"/>
    <path fill="#6F4A80" d="M135904.6493 159757.0523c49.14624-1063.00291 89.33734-2130.46811 142.94586-3193.44045 1339.87667-142.91552 2648.51736-491.31029 3885.70041-1027.27403 4639.21486-1991.77037 7674.0864-6524.26439 7749.12-11572.30565 582.41952 985.86032 1027.24183 2046.7849 1322.02753 3153.24928 1831.21675 6837.96944-2344.83766 13841.22697-9325.71156 15632.22488-1334.55861 345.24672-2714.65695 481.01035-4091.17935 401.97281 232.25262-1089.8072 267.98144-2228.73016 317.09711-3394.42685"/>
    <path fill="none" pointer-events="visiblePainted" d="M135904.6493 159757.0523c49.14624-1063.00291 89.33734-2130.46811 142.94586-3193.44045 1339.87667-142.91552 2648.51736-491.31029 3885.70041-1027.27403 4639.21486-1991.77037 7674.0864-6524.26439 7749.12-11572.30565 582.41952 985.86032 1027.24183 2046.7849 1322.02753 3153.24928 1831.21675 6837.96944-2344.83766 13841.22697-9325.71156 15632.22488-1334.55861 345.24672-2714.65695 481.01035-4091.17935 401.97281 232.25262-1089.8072 267.98144-2228.73016 317.09711-3394.42685"/>
    <g>
      <path stroke="#4B3663" stroke-width="328.7268" stroke-linecap="round" stroke-linejoin="round" stroke-miterlimit="8" d="M135904.68236 159757.02197c49.14633-1063.00122 89.33752-2130.46472 142.94614-3193.43538 1339.87942-142.94586 2648.5228-491.30951 3885.70838-1027.2724 4639.1938-1991.76722 7674.10213-6524.25406 7749.13587-11572.28733 582.39016 985.85875 1027.24394 2046.78165 1322.03025 3153.24428 1831.2205 6837.95862-2344.84247 13841.20506-9325.73067 15632.20014-1334.56135 345.24617-2714.66251 481.00958-4091.18774 401.97217 232.2531-1089.80548 267.982-2228.72663 317.09777-3394.42148z"/>
      <path fill="none" pointer-events="visiblePainted" d="M135904.68236 159757.02197c49.14633-1063.00122 89.33752-2130.46472 142.94614-3193.43538 1339.87942-142.94586 2648.5228-491.30951 3885.70838-1027.2724 4639.1938-1991.76722 7674.10213-6524.25406 7749.13587-11572.28733 582.39016 985.85875 1027.24394 2046.78165 1322.03025 3153.24428 1831.2205 6837.95862-2344.84247 13841.20506-9325.73067 15632.20014-1334.56135 345.24617-2714.66251 481.00958-4091.18774 401.97217 232.2531-1089.80548 267.982-2228.72663 317.09777-3394.42148z"/>
    </g>
    <g>
      <path fill="#6F4A80" d="M135600.93991 159685.59902c93.79986-2130.4687 165.25768-4260.90683 308.20389-6386.88267 285.8313-31.2666 576.15545-62.5332 866.44904-111.67952 4957.66923-835.21244 8740.65498-4560.12481 9986.76573-9223.00457 281.39956 1071.92779 437.7021 2197.43363 437.7021 3363.1612 0 6757.589-5127.35865 12282.45493-11612.50764 12715.69445l13.38688-357.28889"/>
      <path fill="none" pointer-events="visiblePainted" d="M135600.93991 159685.59902c93.79986-2130.4687 165.25768-4260.90683 308.20389-6386.88267 285.8313-31.2666 576.15545-62.5332 866.44904-111.67952 4957.66923-835.21244 8740.65498-4560.12481 9986.76573-9223.00457 281.39956 1071.92779 437.7021 2197.43363 437.7021 3363.1612 0 6757.589-5127.35865 12282.45493-11612.50764 12715.69445l13.38688-357.28889"/>
    </g>
    <g>
      <path stroke="#4B3663" stroke-width="328.7268" stroke-linecap="round" stroke-linejoin="round" stroke-miterlimit="8" d="M135600.97007 159685.56433c93.79962-2130.46473 165.25726-4260.8989 308.20311-6386.87078 285.83058-31.26654 576.154-62.53308 866.44686-111.6793 4957.65677-835.21089 8740.633-4560.11633 9986.74062-9222.9874 281.39886 1071.9258 437.701 2197.42954 437.701 3363.15494 0 6757.57641-5127.34576 12282.43205-11612.47844 12715.67076l13.38685-357.28822zm133.99072-3180.04854c1281.83644-142.91529 2532.4369-491.3095 3702.59403-1027.2724 4586.95114-2090.24306 7324.80584-6681.62592 7378.41435-11514.21653"/>
      <path fill="none" pointer-events="visiblePainted" d="M135600.97007 159685.56433c93.79962-2130.46473 165.25726-4260.8989 308.20311-6386.87078 285.83058-31.26654 576.154-62.53308 866.44686-111.6793 4957.65677-835.21089 8740.633-4560.11633 9986.74062-9222.9874 281.39886 1071.9258 437.701 2197.42954 437.701 3363.15494 0 6757.57641-5127.34576 12282.43205-11612.47844 12715.67076l13.38685-357.28822zm133.99072-3180.04854c1281.83644-142.91529 2532.4369-491.3095 3702.59403-1027.2724 4586.95114-2090.24306 7324.80584-6681.62592 7378.41435-11514.21653"/>
    </g>
    <g>
      <path fill="#6F4A80" d="M103112.77782 159757.0523c-49.11567-1063.00291-89.30677-2130.46811-142.91528-3193.44045-1339.90724-142.91552-2648.54793-491.31029-3885.73099-1027.27403-4639.0926-1991.77037-7674.14753-6524.26439-7749.08942-11572.30565-582.4501 985.86032-1027.2724 2046.7849-1322.02754 3153.24928-1831.21675 6837.96944 2344.8071 13841.22697 9325.71156 15632.22488 1334.4058 346.59152 2714.80977 481.92726 4091.17935 401.97281-232.25262-1089.8072-267.98144-2228.73016-317.12768-3394.42685"/>
      <path fill="none" pointer-events="visiblePainted" d="M103112.77782 159757.0523c-49.11567-1063.00291-89.30677-2130.46811-142.91528-3193.44045-1339.90724-142.91552-2648.54793-491.31029-3885.73099-1027.27403-4639.0926-1991.77037-7674.14753-6524.26439-7749.08942-11572.30565-582.4501 985.86032-1027.2724 2046.7849-1322.02754 3153.24928-1831.21675 6837.96944 2344.8071 13841.22697 9325.71156 15632.22488 1334.4058 346.59152 2714.80977 481.92726 4091.17935 401.97281-232.25262-1089.8072-267.98144-2228.73016-317.12768-3394.42685"/>
    </g>
    <g>
      <path stroke="#4B3663" stroke-width="328.7268" stroke-linecap="round" stroke-linejoin="round" stroke-miterlimit="8" d="M103112.80214 159757.02197c-49.11577-1063.00122-89.30696-2130.46472-142.91558-3193.43538-1339.90999-142.94586-2648.55336-491.30951-3885.73895-1027.2724-4639.1021-1991.76722-7674.16325-6524.25406-7749.1053-11572.28733-582.48185 985.85875-1027.2745 2046.78165-1322.06081 3153.24428-1831.18994 6837.95862 2344.84246 13841.20506 9325.76123 15632.20014 1334.40853 346.59097 2714.81533 481.89592 4091.18774 401.97217-232.2531-1089.80548-267.982-2228.72663-317.12833-3394.42148z"/>
      <path fill="none" pointer-events="visiblePainted" d="M103112.80214 159757.02197c-49.11577-1063.00122-89.30696-2130.46472-142.91558-3193.43538-1339.90999-142.94586-2648.55336-491.30951-3885.73895-1027.2724-4639.1021-1991.76722-7674.16325-6524.25406-7749.1053-11572.28733-582.48185 985.85875-1027.2745 2046.78165-1322.06081 3153.24428-1831.18994 6837.95862 2344.84246 13841.20506 9325.76123 15632.20014 1334.40853 346.59097 2714.81533 481.89592 4091.18774 401.97217-232.2531-1089.80548-267.982-2228.72663-317.12833-3394.42148z"/>
    </g>
    <g>
      <path fill="#6F4A80" d="M102523.25747 159685.59902c-98.26215-2130.4687-165.25768-4260.90683-308.17333-6386.88267-285.86186-31.2666-576.15545-62.5332-866.4796-111.67952-4957.63867-835.21244-8740.65498-4560.12481-9986.76573-9223.00457-289.68232 1097.60124-436.81575 2227.93613-437.7021 3363.1612 0 6757.589 5127.35865 12282.45493 11612.50764 12715.69445l-13.38688-357.28889"/>
      <path fill="none" pointer-events="visiblePainted" d="M102523.25747 159685.59902c-98.26215-2130.4687-165.25768-4260.90683-308.17333-6386.88267-285.86186-31.2666-576.15545-62.5332-866.4796-111.67952-4957.63867-835.21244-8740.65498-4560.12481-9986.76573-9223.00457-289.68232 1097.60124-436.81575 2227.93613-437.7021 3363.1612 0 6757.589 5127.35865 12282.45493 11612.50764 12715.69445l-13.38688-357.28889"/>
    </g>
    <g>
      <path stroke="#4B3663" stroke-width="328.7268" stroke-linecap="round" stroke-linejoin="round" stroke-miterlimit="8" d="M102523.23461 159685.56433c-98.2619-2130.46473-165.25726-4260.8989-308.17255-6386.87078-285.86114-31.26654-576.154-62.53308-866.47742-111.6793-4957.6262-835.21089-8740.633-4560.11633-9986.74062-9222.9874-289.68159 1097.5992-436.81465 2227.93199-437.701 3363.15494 0 6757.57641 5127.34576 12282.43205 11612.47844 12715.67076l-13.38685-357.28822zm-133.99072-3180.04854c-1280.82784-144.22952-2530.57252-490.94275-3702.59403-1027.2724-4586.95113-2090.24306-7324.80584-6681.62592-7378.41435-11514.21653"/>
      <path fill="none" pointer-events="visiblePainted" d="M102523.23461 159685.56433c-98.2619-2130.46473-165.25726-4260.8989-308.17255-6386.87078-285.86114-31.26654-576.154-62.53308-866.47742-111.6793-4957.6262-835.21089-8740.633-4560.11633-9986.74062-9222.9874-289.68159 1097.5992-436.81465 2227.93199-437.701 3363.15494 0 6757.57641 5127.34576 12282.43205 11612.47844 12715.67076l-13.38685-357.28822zm-133.99072-3180.04854c-1280.82784-144.22952-2530.57252-490.94275-3702.59403-1027.2724-4586.95113-2090.24306-7324.80584-6681.62592-7378.41435-11514.21653"/>
    </g>
    <g>
      <path fill="#FBD063" d="M112362.60033 131458.26579h13399.07174v-9379.32008h-13399.07174v9379.32008z"/>
      <path fill="none" pointer-events="visiblePainted" d="M112362.60033 131458.26579h13399.07174v-9379.32008h-13399.07174v9379.32008z"/>
    </g>
    <g>
      <path stroke="#4B3663" stroke-width="328.7268" stroke-linecap="round" stroke-linejoin="round" stroke-miterlimit="8" d="M112362.5948 131458.29599h13399.04179v-9379.34716h-13399.0418v9379.34716z"/>
      <path fill="none" pointer-events="visiblePainted" d="M112362.5948 131458.29599h13399.04179v-9379.34716h-13399.0418v9379.34716z"/>
    </g>
    <g>
      <path fill="#9E709F" d="M102536.64554 161382.75372h33050.93307v-20991.82907h-33050.93307v20991.82907zm5247.94963-24676.5434l-3238.11934 3238.08877-4689.64476-11165.85287 11165.85288 4689.64476-3238.08878 3238.11933"/>
      <path fill="none" pointer-events="visiblePainted" d="M102536.64554 161382.75372h33050.93307v-20991.82907h-33050.93307v20991.82907zm5247.94963-24676.5434l-3238.11934 3238.08877-4689.64476-11165.85287 11165.85288 4689.64476-3238.08878 3238.11933"/>
    </g>
    <g>
      <path stroke="#4B3663" stroke-width="328.7268" stroke-linecap="round" stroke-linejoin="round" stroke-miterlimit="8" d="M107784.60233 136706.21747l-3238.11934 3238.08878-4689.64476-11165.85288 11165.85287 4689.64476-3238.08877 3238.11934z"/>
      <path fill="none" pointer-events="visiblePainted" d="M107784.60233 136706.21747l-3238.11934 3238.08878-4689.64476-11165.85288 11165.85287 4689.64476-3238.08877 3238.11934z"/>
    </g>
    <g>
      <path fill="#9E709F" d="M130339.6038 136706.21031l3238.11934 3238.08878 4689.64476-11165.85287-11165.85287 4689.64476 3238.08877 3238.11933"/>
      <path fill="none" pointer-events="visiblePainted" d="M130339.6038 136706.21031l3238.11934 3238.08878 4689.64476-11165.85287-11165.85287 4689.64476 3238.08877 3238.11933"/>
    </g>
    <g>
      <path stroke="#4B3663" stroke-width="328.7268" stroke-linecap="round" stroke-linejoin="round" stroke-miterlimit="8" d="M130339.59902 136706.21747l3238.11934 3238.08878 4689.64476-11165.85288-11165.85288 4689.64476 3238.08878 3238.11934z"/>
      <path fill="none" pointer-events="visiblePainted" d="M130339.59902 136706.21747l3238.11934 3238.08878 4689.64476-11165.85288-11165.85288 4689.64476 3238.08878 3238.11934z"/>
    </g>
    <g>
      <path fill="#9E709F" d="M134247.6791 143133.30264c0 4211.7605-15408.90264-3340.84975-15408.90264-3340.84975s-15408.87208 7548.14796-15408.87208 3340.84975c0-8414.627 6900.4917-15248.13607 15408.87208-15248.13607 8508.38037 0 15408.90264 6829.04678 15408.90264 15248.13607"/>
      <path fill="none" pointer-events="visiblePainted" d="M134247.6791 143133.30264c0 4211.7605-15408.90264-3340.84975-15408.90264-3340.84975s-15408.87208 7548.14796-15408.87208 3340.84975c0-8414.627 6900.4917-15248.13607 15408.87208-15248.13607 8508.38037 0 15408.90264 6829.04678 15408.90264 15248.13607"/>
    </g>
    <g>
      <path stroke="#4B3663" stroke-width="328.7268" stroke-linecap="round" stroke-linejoin="round" stroke-miterlimit="8" d="M134247.70364 143133.30464c0 4211.75267-15408.917-3340.84352-15408.917-3340.84352s-15408.88642 7548.1339-15408.88642 3340.84352c0-8414.61132 6900.49812-15248.10766 15408.88643-15248.10766 8508.3883 0 15408.91699 6829.03406 15408.91699 15248.10766z"/>
      <path fill="none" pointer-events="visiblePainted" d="M134247.70364 143133.30464c0 4211.75267-15408.917-3340.84352-15408.917-3340.84352s-15408.88642 7548.1339-15408.88642 3340.84352c0-8414.61132 6900.49812-15248.10766 15408.88643-15248.10766 8508.3883 0 15408.91699 6829.03406 15408.91699 15248.10766z"/>
    </g>
    <g>
      <path fill="#FBD063" d="M122188.53767 146500.89834l-2903.14253 2822.72976-2903.11197-2822.72976 2903.11197-2983.52474 2903.14253 2983.52474"/>
      <path fill="none" pointer-events="visiblePainted" d="M122188.53767 146500.89834l-2903.14253 2822.72976-2903.11197-2822.72976 2903.11197-2983.52474 2903.14253 2983.52474"/>
    </g>
    <g>
      <path stroke="#4B3663" stroke-width="328.7268" stroke-linecap="round" stroke-linejoin="round" stroke-miterlimit="8" d="M122188.57257 146500.94502l-2903.15497 2822.74186-2903.1244-2822.74186 2903.1244-2983.53752 2903.15497 2983.53752z"/>
      <path fill="none" pointer-events="visiblePainted" d="M122188.57257 146500.94502l-2903.15497 2822.74186-2903.1244-2822.74186 2903.1244-2983.53752 2903.15497 2983.53752z"/>
    </g>
    <g>
      <path fill="#FFFFFE" d="M127070.2754 130564.98573c-3190.32088-17.63518-6151.72035 1654.22307-7784.85606 4394.88962-1633.10516-2740.66655-4594.53519-4412.5248-7784.8255-4394.88962-4948.73681 0-8963.96941 3899.11783-8963.96941 8709.39703 0 4810.24864 4015.2326 8709.36647 8963.9694 8709.36647 3331.8915 0 6239.46846-1768.68367 7784.8255-4394.88962 1633.13572 2740.66655 4594.5352 4412.5248 7784.85607 4394.88962 4948.70625 0 8963.93885-3899.11783 8963.93885-8709.36647 0-4810.2792-4015.2326-8709.39703-8963.93885-8709.39703"/>
      <path fill="none" pointer-events="visiblePainted" d="M127070.2754 130564.98573c-3190.32088-17.63518-6151.72035 1654.22307-7784.85606 4394.88962-1633.10516-2740.66655-4594.53519-4412.5248-7784.8255-4394.88962-4948.73681 0-8963.96941 3899.11783-8963.96941 8709.39703 0 4810.24864 4015.2326 8709.36647 8963.9694 8709.36647 3331.8915 0 6239.46846-1768.68367 7784.8255-4394.88962 1633.13572 2740.66655 4594.5352 4412.5248 7784.85607 4394.88962 4948.70625 0 8963.93885-3899.11783 8963.93885-8709.36647 0-4810.2792-4015.2326-8709.39703-8963.93885-8709.39703"/>
    </g>
    <g>
      <path stroke="#4B3663" stroke-width="328.7268" stroke-linecap="butt" stroke-linejoin="round" stroke-miterlimit="8" d="M127070.24745 130564.98095c-3190.3179-17.63518-6151.71461 1654.22307-7784.8488 4394.88962-1633.10364-2740.66655-4594.53091-4412.5248-7784.81825-4394.88962-4948.7322 0-8963.96107 3899.11783-8963.96107 8709.39703 0 4810.24863 4015.22886 8709.36646 8963.96107 8709.36646 3331.8884 0 6239.46264-1768.68366 7784.81824-4394.88962 1633.1342 2740.66656 4594.5309 4412.5248 7784.84881 4394.88962 4948.70164 0 8963.9305-3899.11783 8963.9305-8709.36646 0-4810.2792-4015.22886-8709.39703-8963.9305-8709.39703z"/>
      <path fill="none" pointer-events="visiblePainted" d="M127070.24745 130564.98095c-3190.3179-17.63518-6151.71461 1654.22307-7784.8488 4394.88962-1633.10364-2740.66655-4594.53091-4412.5248-7784.81825-4394.88962-4948.7322 0-8963.96107 3899.11783-8963.96107 8709.39703 0 4810.24863 4015.22886 8709.36646 8963.96107 8709.36646 3331.8884 0 6239.46264-1768.68366 7784.81824-4394.88962 1633.1342 2740.66656 4594.5309 4412.5248 7784.84881 4394.88962 4948.70164 0 8963.9305-3899.11783 8963.9305-8709.36646 0-4810.2792-4015.22886-8709.39703-8963.9305-8709.39703z"/>
    </g>
    <g>
      <path fill="#4F3969" d="M111915.94101 138827.73722c0 616.68837-499.89787 1116.59197-1116.57917 1116.59197-616.65074 0-1116.57918-499.9036-1116.57918-1116.59197 0-616.6578 499.92844-1116.59196 1116.57918-1116.59196 616.6813 0 1116.57917 499.93416 1116.57917 1116.59196m16078.85626 0c0 616.68837-499.92844 1116.59197-1116.60974 1116.59197-616.65074 0-1116.57917-499.9036-1116.57917-1116.59197 0-616.6578 499.92843-1116.59196 1116.57917-1116.59196 616.6813 0 1116.60974 499.93416 1116.60974 1116.59196"/>
      <path fill="none" pointer-events="visiblePainted" d="M111915.94101 138827.73722c0 616.68837-499.89787 1116.59197-1116.57917 1116.59197-616.65074 0-1116.57918-499.9036-1116.57918-1116.59197 0-616.6578 499.92844-1116.59196 1116.57918-1116.59196 616.6813 0 1116.57917 499.93416 1116.57917 1116.59196m16078.85626 0c0 616.68837-499.92844 1116.59197-1116.60974 1116.59197-616.65074 0-1116.57917-499.9036-1116.57917-1116.59197 0-616.6578 499.92843-1116.59196 1116.57917-1116.59196 616.6813 0 1116.60974 499.93416 1116.60974 1116.59196"/>
    </g>
    <g>
      <path stroke="#4B3663" stroke-width="328.7268" stroke-linecap="round" stroke-linejoin="round" stroke-miterlimit="8" d="M102536.63462 139051.05106v13399.04179"/>
      <path fill="none" pointer-events="visiblePainted" d="M102536.63462 139051.05106v13399.04179"/>
    </g>
    <g>
      <path stroke="#4B3663" stroke-width="328.7268" stroke-linecap="butt" stroke-miterlimit="8" d="M136034.22073 139051.05106v13399.04179"/>
      <path fill="none" pointer-events="visiblePainted" d="M136034.22073 139051.05106v13399.04179"/>
    </g>
    <g>
      <path stroke="#4B3663" stroke-width="328.7268" stroke-linecap="round" stroke-linejoin="round" stroke-miterlimit="8" d="M86457.78977 166742.35724c4082.22612 0 7391.80465 3206.82224 7391.80465 7168.47314v3541.79905m-4921.93024-7168.47315c2733.42425 0 4944.24166 2143.85158 4944.24166 4792.39951v2367.14907m54900.34056 8.92457H89115.2635m5203.29867-2501.1398l5163.07698-1831.18618m52184.796-6377.94621c-4082.25668 0-7391.80465 3206.82224-7391.80465 7168.47314v3541.79905m4921.89968-7168.47315c-2733.3937 0-4948.70395 2143.85158-4948.70395 4792.39951v2367.14907m-442.16348-2496.67751l-5163.10754-1822.26161"/>
      <path fill="none" pointer-events="visiblePainted" d="M86457.78977 166742.35724c4082.22612 0 7391.80465 3206.82224 7391.80465 7168.47314v3541.79905m-4921.93024-7168.47315c2733.42425 0 4944.24166 2143.85158 4944.24166 4792.39951v2367.14907m54900.34056 8.92457H89115.2635m5203.29867-2501.1398l5163.07698-1831.18618m52184.796-6377.94621c-4082.25668 0-7391.80465 3206.82224-7391.80465 7168.47314v3541.79905m4921.89968-7168.47315c-2733.3937 0-4948.70395 2143.85158-4948.70395 4792.39951v2367.14907m-442.16348-2496.67751l-5163.10754-1822.26161"/>
    </g>
    <g>
      <path fill="#FCD672" d="M130674.61046 128778.47853h-3573.09288l1786.54644-4019.74941 1786.54644 4019.7494"/>
      <path fill="none" pointer-events="visiblePainted" d="M130674.61046 128778.47853h-3573.09288l1786.54644-4019.74941 1786.54644 4019.7494"/>
    </g>
    <g>
      <path stroke="#4B3663" stroke-width="328.7268" stroke-linecap="round" stroke-linejoin="round" stroke-miterlimit="8" d="M130674.57583 128778.47955h-3573.06559l1786.5328-4019.7217 1786.53279 4019.7217z"/>
      <path fill="none" pointer-events="visiblePainted" d="M130674.57583 128778.47955h-3573.06559l1786.5328-4019.7217 1786.53279 4019.7217z"/>
    </g>
    <g>
      <path fill="#A3D4C7" d="M137065.94172 177461.61164H101509.376c-905.29316 4.92074-1643.12849-724.87724-1648.07979-1630.20207v-22193.2796c4.92074-904.2551 739.3635-1634.69493 1643.6175-1634.69493h35561.028c906.21007-2.44509 1643.15905 728.6977 1648.07978 1634.69492v22188.81733c-2.6896 905.32482-738.29377 1637.35395-1643.6175 1634.66435"/>
      <path fill="none" pointer-events="visiblePainted" d="M137065.94172 177461.61164H101509.376c-905.29316 4.92074-1643.12849-724.87724-1648.07979-1630.20207v-22193.2796c4.92074-904.2551 739.3635-1634.69493 1643.6175-1634.69493h35561.028c906.21007-2.44509 1643.15905 728.6977 1648.07978 1634.69492v22188.81733c-2.6896 905.32482-738.29377 1637.35395-1643.6175 1634.66435"/>
    </g>
    <g>
      <path stroke="#4F3969" stroke-width="328.7268" stroke-linecap="butt" stroke-miterlimit="8" d="M137065.94887 177461.58757h-35556.5657c-905.29317 4.92074-1643.1285-724.87637-1648.0798-1630.2001v-22193.25274c4.92074-904.254 739.36351-1634.69294 1643.61751-1634.69294h35561.028c906.21006-2.44508 1643.15904 728.69682 1648.07978 1634.69294v22188.79046c-2.6896 905.32373-738.29378 1637.35197-1643.6175 1634.66238z"/>
      <path fill="none" pointer-events="visiblePainted" d="M137065.94887 177461.58757h-35556.5657c-905.29317 4.92074-1643.1285-724.87637-1648.0798-1630.2001v-22193.25274c4.92074-904.254 739.36351-1634.69294 1643.61751-1634.69294h35561.028c906.21006-2.44508 1643.15904 728.69682 1648.07978 1634.69294v22188.79046c-2.6896 905.32373-738.29378 1637.35197-1643.6175 1634.66238z"/>
    </g>
    <g>
      <path fill="#FBD063" d="M128888.0498 120962.35282l-10049.2737 4243.03382-10049.2737-4243.03382 10049.2737-4243.03382 10049.2737 4243.03382"/>
      <path fill="none" pointer-events="visiblePainted" d="M128888.0498 120962.35282l-10049.2737 4243.03382-10049.2737-4243.03382 10049.2737-4243.03382 10049.2737 4243.03382"/>
    </g>
    <g>
      <path stroke="#4B3663" stroke-width="328.7268" stroke-linecap="round" stroke-linejoin="round" stroke-miterlimit="8" d="M128888.07596 120962.33823l-10049.28867 4243.0192-10049.28868-4243.0192 10049.28868-4243.0192 10049.28867 4243.0192zm0 0v4082.25478-4082.25478z"/>
      <path fill="none" pointer-events="visiblePainted" d="M128888.07596 120962.33823l-10049.28867 4243.0192-10049.28868-4243.0192 10049.28868-4243.0192 10049.28867 4243.0192zm0 0v4082.25478-4082.25478z"/>
    </g>
    <g>
      <path fill="#7EB2A4" d="M121741.91878 164955.82626c0 1726.6893-1399.75072 3126.44002-3126.44003 3126.44002-1726.6893 0-3126.44003-1399.75072-3126.44003-3126.44002 0-1726.68931 1399.75072-3126.44003 3126.44003-3126.44003 1726.6893 0 3126.44003 1399.75072 3126.44003 3126.44003z"/>
      <path fill="none" pointer-events="visiblePainted" d="M121741.91878 164955.82626c0 1726.6893-1399.75072 3126.44002-3126.44003 3126.44002-1726.6893 0-3126.44003-1399.75072-3126.44003-3126.44002 0-1726.68931 1399.75072-3126.44003 3126.44003-3126.44003 1726.6893 0 3126.44003 1399.75072 3126.44003 3126.44003z"/>
    </g>
  </g>
</svg>